<?xml version="1.0" standalone="no"?>
<!DOCTYPE svg PUBLIC "-//W3C//DTD SVG 20010904//EN"
 "http://www.w3.org/TR/2001/REC-SVG-20010904/DTD/svg10.dtd">
<svg version="1.0" xmlns="http://www.w3.org/2000/svg"
 width="700.000000pt" height="700.000000pt" viewBox="0 0 700.000000 700.000000"
 preserveAspectRatio="xMidYMid meet">
<metadata>
Created by potrace 1.14, written by Peter Selinger 2001-2017
</metadata>
<g transform="translate(0.000000,700.000000) scale(0.100000,-0.100000)"
fill="#000000" stroke="none">
<path d="M1980 6875 l0 -105 -215 0 -215 0 0 -110 0 -110 -220 0 -220 0 0
-110 0 -110 -220 0 -220 0 0 -110 0 -110 -110 0 -110 0 0 -215 0 -215 -105 0
-105 0 0 -329 0 -328 -110 -8 -110 -7 0 -1524 0 -1524 105 0 105 0 0 -220 0
-220 110 0 110 0 0 -325 0 -324 108 -3 107 -3 3 -107 3 -108 217 -2 217 -3 3
-107 3 -108 214 0 215 0 0 -110 0 -110 220 0 220 0 0 -37 c0 -21 3 -68 7 -105
l6 -68 1523 0 1524 0 0 100 0 100 220 0 220 0 0 110 0 110 218 2 217 3 3 108
3 107 214 0 215 0 0 110 0 110 110 0 110 0 2 327 3 328 108 3 107 3 0 219 0
220 105 0 105 0 0 1530 0 1530 -100 0 -100 0 0 215 0 215 -110 0 -110 0 0 220
0 220 -110 0 -110 0 0 220 0 220 -110 0 -109 0 -3 108 -3 107 -327 3 -328 2 0
105 0 105 -217 2 -218 3 -3 108 -3 107 -1529 0 -1530 0 0 -105z m3050 -335
c11 -7 16 -33 19 -102 2 -55 8 -96 15 -100 6 -4 97 -8 201 -8 105 0 195 -4
201 -8 6 -4 14 -41 18 -82 4 -41 9 -83 12 -92 8 -28 70 -38 239 -38 112 0 165
-4 173 -12 7 -7 12 -42 12 -88 0 -106 7 -114 112 -118 45 -2 89 -9 96 -14 9
-8 12 -61 12 -203 0 -150 3 -195 14 -204 7 -6 48 -14 90 -17 116 -10 110 0
114 -220 2 -104 8 -194 13 -200 5 -6 44 -14 86 -17 59 -4 81 -10 97 -27 l21
-21 3 -1487 c2 -1272 0 -1491 -12 -1507 -12 -16 -30 -21 -108 -25 l-93 -5 -3
-199 c-1 -127 -6 -204 -13 -213 -8 -9 -37 -13 -90 -13 -121 0 -119 3 -119
-228 0 -133 -4 -192 -12 -200 -7 -7 -42 -12 -88 -12 -110 0 -120 -9 -120 -114
0 -50 -5 -87 -12 -94 -9 -9 -69 -12 -210 -12 -230 0 -218 6 -215 -108 3 -108
7 -106 -231 -112 l-197 -5 -8 -83 c-9 -106 -16 -119 -70 -127 -65 -9 -2974 -1
-2984 8 -4 5 -10 52 -13 105 l-5 97 -200 3 c-237 3 -235 1 -235 109 0 55 -4
67 -25 88 -24 25 -26 25 -203 25 -141 0 -182 3 -191 14 -6 8 -13 50 -14 93 -3
107 -8 113 -111 113 -50 0 -87 5 -94 12 -8 8 -12 67 -12 200 0 227 0 228 -105
228 -57 0 -69 3 -90 25 -25 24 -25 26 -25 203 0 125 -4 182 -12 190 -7 7 -43
12 -90 12 -133 0 -118 -197 -118 1539 0 1350 2 1501 16 1515 11 12 36 16 98
16 50 0 87 5 94 12 9 9 12 93 12 314 0 354 -7 334 111 334 85 0 96 11 105 112
4 44 12 83 20 89 7 6 47 14 88 18 42 4 81 12 88 19 7 7 15 46 19 87 3 41 11
81 19 89 10 13 42 16 197 16 108 0 192 4 204 10 14 8 19 22 19 53 1 67 17 130
36 144 13 10 65 13 199 13 127 0 185 4 193 12 7 7 12 44 12 94 0 74 2 84 22
98 20 14 180 16 1518 16 924 0 1501 -4 1510 -10z"/>
<path d="M3950 5565 l0 -105 328 2 327 3 3 103 3 102 -331 0 -330 0 0 -105z"/>
<path d="M3770 5230 l-255 -5 -3 -1830 c-1 -1007 0 -1840 3 -1852 5 -23 6 -23
220 -23 l215 0 2 653 3 652 108 3 107 3 0 -111 0 -110 110 0 110 0 0 -110 0
-110 110 0 110 0 0 -110 0 -110 110 0 110 0 0 -325 0 -325 325 0 325 0 0 435
0 435 -217 2 -218 3 -3 217 -2 217 -108 3 -107 3 -3 108 -3 107 -104 0 -105 0
0 220 0 220 435 0 435 0 0 655 0 655 -220 0 -220 0 0 220 0 220 -507 -2 c-280
-1 -623 -5 -763 -8z m1050 -870 l0 -220 -215 0 -215 0 0 -105 0 -105 -110 0
-110 0 0 -100 c0 -126 -6 -132 -131 -128 l-84 3 -3 425 c-1 234 0 431 3 438 3
9 100 12 435 12 l430 0 0 -220z"/>
</g>
</svg>
